<svg width="25" height="25" viewBox="0 0 25 25" fill="none" xmlns="http://www.w3.org/2000/svg">
<path d="M25 4.16663H0V20.8335H25V4.16663Z" fill="#F0F0F0"/>
<path d="M14.0625 4.1665H10.9375V10.9373H0V14.0623H10.9375V20.8331H14.0625V14.0623H25V10.9373H14.0625V4.1665Z" fill="#D80027"/>
<path d="M19.2278 15.3983L25 18.6052V15.3983H19.2278Z" fill="#0052B4"/>
<path d="M15.2173 15.3983L24.9999 20.8331V19.2963L17.9836 15.3983H15.2173Z" fill="#0052B4"/>
<path d="M22.3941 20.8331L15.2173 16.8456V20.8331H22.3941Z" fill="#0052B4"/>
<path d="M15.2173 15.3983L24.9999 20.8331V19.2963L17.9836 15.3983H15.2173Z" fill="#F0F0F0"/>
<path d="M15.2173 15.3983L24.9999 20.8331V19.2963L17.9836 15.3983H15.2173Z" fill="#D80027"/>
<path d="M4.41118 15.3982L0 17.8489V15.3982H4.41118Z" fill="#0052B4"/>
<path d="M9.78257 16.0894V20.8331H1.24463L9.78257 16.0894Z" fill="#0052B4"/>
<path d="M7.01626 15.3983L0 19.2963V20.8331L9.78262 15.3983H7.01626Z" fill="#D80027"/>
<path d="M5.77222 9.60125L0 6.39441V9.60125H5.77222Z" fill="#0052B4"/>
<path d="M9.78262 9.60127L0 4.1665V5.70332L7.01626 9.60127H9.78262Z" fill="#0052B4"/>
<path d="M2.60571 4.1665L9.78257 8.154V4.1665H2.60571Z" fill="#0052B4"/>
<path d="M9.78262 9.60127L0 4.1665V5.70332L7.01626 9.60127H9.78262Z" fill="#F0F0F0"/>
<path d="M9.78262 9.60127L0 4.1665V5.70332L7.01626 9.60127H9.78262Z" fill="#D80027"/>
<path d="M20.5886 9.60132L24.9998 7.15063V9.60132H20.5886Z" fill="#0052B4"/>
<path d="M15.2173 8.9102V4.1665H23.7552L15.2173 8.9102Z" fill="#0052B4"/>
<path d="M17.9836 9.60127L24.9999 5.70332V4.1665L15.2173 9.60127H17.9836Z" fill="#D80027"/>
</svg>
