<svg width="42" height="31" viewBox="0 0 42 31" fill="none" xmlns="http://www.w3.org/2000/svg">
<path d="M0.519531 17.832C0.519531 15.6966 0.682292 13.75 1.00781 11.9922C1.34635 10.2214 1.84115 8.65885 2.49219 7.30469C3.14323 5.9375 3.96354 4.78516 4.95312 3.84766C5.94271 2.91016 7.10156 2.20052 8.42969 1.71875C9.75781 1.23698 11.2487 0.996094 12.9023 0.996094C13.6185 0.996094 14.3021 1.03516 14.9531 1.11328C15.6042 1.19141 16.1771 1.30208 16.6719 1.44531V3.24219C16.1901 3.07292 15.6302 2.94271 14.9922 2.85156C14.3542 2.7474 13.6706 2.69531 12.9414 2.69531C10.7018 2.69531 8.82031 3.21615 7.29688 4.25781C5.77344 5.28646 4.60807 6.82943 3.80078 8.88672C3.00651 10.931 2.5638 13.4701 2.47266 16.5039H2.60938C2.98698 15.8008 3.51432 15.1302 4.19141 14.4922C4.88151 13.8542 5.73438 13.3333 6.75 12.9297C7.77865 12.526 8.98958 12.3242 10.3828 12.3242C12.1016 12.3242 13.5794 12.6693 14.8164 13.3594C16.0664 14.0495 17.0234 15.0391 17.6875 16.3281C18.3646 17.6172 18.7031 19.1471 18.7031 20.918C18.7031 22.819 18.3516 24.4792 17.6484 25.8984C16.9583 27.3177 15.9557 28.4245 14.6406 29.2188C13.3385 30 11.7695 30.3906 9.93359 30.3906C8.37109 30.3906 7.00391 30.0716 5.83203 29.4336C4.66016 28.7956 3.67708 27.9036 2.88281 26.7578C2.10156 25.612 1.50911 24.2839 1.10547 22.7734C0.714844 21.25 0.519531 19.6029 0.519531 17.832ZM9.91406 28.6719C12.0625 28.6719 13.7292 28.0013 14.9141 26.6602C16.112 25.306 16.7109 23.3919 16.7109 20.918C16.7109 18.7826 16.1641 17.0964 15.0703 15.8594C13.9766 14.6094 12.3229 13.9844 10.1094 13.9844C8.57292 13.9844 7.24479 14.2904 6.125 14.9023C5.01823 15.5143 4.16536 16.276 3.56641 17.1875C2.96745 18.0859 2.66797 18.9714 2.66797 19.8438C2.66797 20.6641 2.78516 21.5755 3.01953 22.5781C3.25391 23.5807 3.65104 24.5508 4.21094 25.4883C4.77083 26.4128 5.51302 27.1745 6.4375 27.7734C7.375 28.3724 8.53385 28.6719 9.91406 28.6719ZM41.3594 15.6445C41.3594 18.0273 41.1771 20.1367 40.8125 21.9727C40.4479 23.8086 39.8945 25.3516 39.1523 26.6016C38.4102 27.8516 37.4661 28.7956 36.3203 29.4336C35.1745 30.0716 33.8203 30.3906 32.2578 30.3906C30.2786 30.3906 28.612 29.8372 27.2578 28.7305C25.9036 27.6237 24.875 25.9766 24.1719 23.7891C23.4818 21.6016 23.1367 18.8867 23.1367 15.6445C23.1367 12.7539 23.4297 10.2083 24.0156 8.00781C24.6146 5.80729 25.5846 4.08854 26.9258 2.85156C28.2669 1.61458 30.0508 0.996094 32.2773 0.996094C34.4909 0.996094 36.2617 1.60156 37.5898 2.8125C38.931 4.02344 39.8945 5.72917 40.4805 7.92969C41.0664 10.1172 41.3594 12.6888 41.3594 15.6445ZM25.1289 15.6445C25.1289 18.5742 25.3828 21.0026 25.8906 22.9297C26.3984 24.8438 27.1797 26.276 28.2344 27.2266C29.2891 28.1771 30.6302 28.6523 32.2578 28.6523C33.9375 28.6523 35.2982 28.1771 36.3398 27.2266C37.3815 26.276 38.1432 24.8372 38.625 22.9102C39.1198 20.9831 39.3672 18.5612 39.3672 15.6445C39.3672 12.9622 39.1523 10.6576 38.7227 8.73047C38.306 6.80339 37.5833 5.32552 36.5547 4.29688C35.526 3.26823 34.1003 2.75391 32.2773 2.75391C30.4935 2.75391 29.0807 3.28125 28.0391 4.33594C26.9974 5.39062 26.2487 6.88151 25.793 8.80859C25.3503 10.7357 25.1289 13.0143 25.1289 15.6445Z" fill="#504F4F"/>
</svg>
