<svg width="17" height="29" viewBox="0 0 17 29" fill="none" xmlns="http://www.w3.org/2000/svg">
<path d="M13.163 0H3.83653C2.31611 0 0.583252 1.80647 0.583252 3.39011V25.6094C0.583252 27.1935 2.31611 29 3.83653 29H13.163C14.6835 29 16.4168 27.1935 16.4168 25.6094V3.39011C16.4168 1.80647 14.6835 0 13.163 0ZM15.6705 25.6098C15.6705 26.8208 14.3113 28.2542 13.163 28.2542H3.83653C2.68827 28.2542 1.32949 26.8208 1.32949 25.6098V3.39011C1.32949 2.17915 2.68873 0.746294 3.83653 0.746294H13.163C14.3113 0.746294 15.6705 2.17962 15.6705 3.39011V25.6098Z" fill="black"/>
<path d="M9.04391 24.8352C9.02003 24.8168 8.98527 24.8208 8.96639 24.8442C8.9475 24.8686 8.95145 24.9034 8.97533 24.9218C9.1604 25.0685 9.26638 25.288 9.26638 25.5233C9.26638 25.9462 8.9231 26.29 8.50021 26.29C8.07779 26.29 7.73399 25.9462 7.73399 25.5233C7.73399 25.286 7.84143 25.0656 8.02904 24.9188C8.05345 24.9004 8.05792 24.8656 8.03898 24.8422C8.02009 24.8178 7.98523 24.8128 7.96135 24.8322C7.74695 24.9994 7.62354 25.2522 7.62354 25.5233C7.62354 26.0074 8.01708 26.4009 8.50068 26.4009C8.98423 26.4009 9.37782 26.0074 9.37782 25.5233C9.37684 25.2541 9.25592 25.0034 9.04391 24.8352Z" fill="black"/>
<path d="M8.49983 25.5786C8.53069 25.5786 8.55509 25.5542 8.55509 25.5233V24.7025C8.55509 24.6716 8.53017 24.6472 8.49983 24.6472C8.4695 24.6472 8.44458 24.6716 8.44458 24.7025V25.5233C8.44458 25.5542 8.4695 25.5786 8.49983 25.5786Z" fill="black"/>
<path d="M8.49967 23.874C7.55988 23.874 6.79517 24.6387 6.79517 25.5785C6.79517 26.5184 7.55983 27.2831 8.49967 27.2831C9.4395 27.2831 10.2042 26.5184 10.2042 25.5785C10.2042 24.6387 9.44002 23.874 8.49967 23.874ZM8.49967 27.0343C7.69713 27.0343 7.04397 26.3815 7.04397 25.5785C7.04397 24.776 7.69671 24.1228 8.49967 24.1228C9.30262 24.1228 9.95542 24.7756 9.95542 25.5785C9.95542 26.3811 9.30262 27.0343 8.49967 27.0343Z" fill="black"/>
<path d="M12.7849 4.57471H4.21555C3.56379 4.57471 3.03394 5.10404 3.03394 5.75632V21.6148C3.03394 22.266 3.56379 22.7964 4.21555 22.7964H12.7849C13.4366 22.7964 13.9665 22.266 13.9665 21.6148V5.75632C13.9665 5.10456 13.4361 4.57471 12.7849 4.57471ZM13.5934 21.6148C13.5934 22.0605 13.2306 22.4232 12.7849 22.4232H4.21555C3.76977 22.4232 3.40708 22.0605 3.40708 21.6148V5.75632C3.40708 5.31054 3.76977 4.94785 4.21555 4.94785H12.7849C13.2306 4.94785 13.5934 5.31054 13.5934 5.75632V21.6148Z" fill="black"/>
<path d="M6.12372 3.21252C6.29546 3.21252 6.43469 3.0733 6.43469 2.90155C6.43469 2.7298 6.29546 2.59058 6.12372 2.59058C5.95197 2.59058 5.81274 2.7298 5.81274 2.90155C5.81274 3.0733 5.95197 3.21252 6.12372 3.21252Z" fill="black"/>
<path d="M8.18939 3.21252C8.36114 3.21252 8.50036 3.0733 8.50036 2.90155C8.50036 2.7298 8.36114 2.59058 8.18939 2.59058C8.01764 2.59058 7.87842 2.7298 7.87842 2.90155C7.87842 3.0733 8.01764 3.21252 8.18939 3.21252Z" fill="black"/>
<path d="M10.2551 3.21252C10.4268 3.21252 10.566 3.0733 10.566 2.90155C10.566 2.7298 10.4268 2.59058 10.2551 2.59058C10.0833 2.59058 9.94409 2.7298 9.94409 2.90155C9.94409 3.0733 10.0833 3.21252 10.2551 3.21252Z" fill="black"/>
</svg>
